<?xml version="1.0" encoding="utf-8"?>
<!-- Generator: Adobe Illustrator 16.0.0, SVG Export Plug-In . SVG Version: 6.00 Build 0)  -->
<!DOCTYPE svg PUBLIC "-//W3C//DTD SVG 1.1//EN" "http://www.w3.org/Graphics/SVG/1.1/DTD/svg11.dtd">
<svg version="1.1" id="Calque_1" xmlns="http://www.w3.org/2000/svg" xmlns:xlink="http://www.w3.org/1999/xlink" x="0px" y="0px"
	 width="330.711px" height="312.263px" viewBox="268.969 89.215 330.711 312.263"
	 enable-background="new 268.969 89.215 330.711 312.263" xml:space="preserve">
<path d="M401.17,133.775c3.083,0.396,5.598,2.858,5.598,5.96c0,3.101-2.515,5.581-5.598,5.96
	c-20.324,2.532-36.43,18.637-38.962,38.962c-0.379,3.083-2.859,5.614-5.96,5.614c-3.102,0-5.58-2.531-5.959-5.614
	c-2.532-20.325-18.638-36.43-38.962-38.962c-3.083-0.379-5.6-2.859-5.6-5.96c0-3.102,2.516-5.563,5.6-5.96
	c20.323-2.532,36.43-18.637,38.962-38.962c0.379-3.065,2.857-5.599,5.959-5.599c3.101,0,5.581,2.532,5.96,5.599
	C364.74,115.138,380.845,131.243,401.17,133.775z"/>
<path d="M306.019,194.336c1.773,11.953,11.23,21.428,23.185,23.185c2.238,0.345,4.083,2.136,4.083,4.393s-1.845,4.048-4.065,4.394
	c-11.988,1.912-21.444,12.092-23.201,24.199c-0.327,2.223-2.119,4.065-4.375,4.065c-2.257,0-4.064-1.844-4.375-4.065
	c-1.792-12.54-11.695-22.442-24.218-24.234c-2.239-0.311-4.083-2.102-4.083-4.357s1.844-4.064,4.083-4.375
	c12.108-1.772,22.271-11.229,24.183-23.201c0.362-2.238,2.153-4.064,4.41-4.064C303.9,190.27,305.692,192.096,306.019,194.336
	L306.019,194.336z"/>
<path d="M582.422,124.834c10.766,10.766,10.766,28.23,0,38.979L347.393,398.79c-1.724,1.723-4.064,2.688-6.494,2.688h-25.991
	c-5.081,0-9.182-4.1-9.182-9.181v-25.976c0-2.444,0.965-4.771,2.688-6.511L543.46,124.833
	C554.207,114.085,571.656,114.085,582.422,124.834L582.422,124.834z"/>
<path d="M388.248,393.518c-3.17,2.808-1.171,8.026,3.049,8.026h190.021c10.146,0,18.362-8.217,18.362-18.361
	c0-10.146-8.217-18.379-18.362-18.379H424.041c-2.257,0-4.427,0.827-6.098,2.326L388.248,393.518z"/>
</svg>
